<svg version="1.1" id="Layer_1" xmlns="http://www.w3.org/2000/svg" xmlns:xlink="http://www.w3.org/1999/xlink" x="0px" y="0px"
	 width="100%" viewBox="0 0 882 162" enable-background="new 0 0 882 162" xml:space="preserve">
<path fill="#FFFFFF" opacity="1.000000" stroke="none" 
	d="
M650.000000,163.000000 
	C433.385071,163.000000 217.270126,163.000000 1.077597,163.000000 
	C1.077597,109.064751 1.077597,55.129356 1.077597,1.096982 
	C294.999969,1.096982 589.000000,1.096982 882.971924,1.096982 
	C882.971924,55.063236 882.971924,109.031624 882.971924,163.000000 
	C805.462585,163.000000 727.981323,163.000000 650.000000,163.000000 
M195.112091,21.028061 
	C192.409851,21.072538 189.707611,21.117014 186.124451,21.032097 
	C183.751282,21.075397 181.378098,21.118696 178.123871,21.033871 
	C175.750687,21.076796 173.377502,21.119719 170.123230,21.036079 
	C167.750412,21.078333 165.377594,21.120586 162.112015,21.036983 
	C159.409821,21.078779 156.707642,21.120573 153.103989,21.037472 
	C150.071564,21.079317 147.039124,21.121162 143.124146,21.038021 
	C140.751312,21.078861 138.378464,21.119703 135.136200,21.037788 
	C133.092300,21.077927 131.048416,21.118067 128.134949,21.037689 
	C126.091316,21.077106 124.047684,21.116524 121.110489,21.036619 
	C118.410057,21.014847 115.709618,20.993073 112.446342,20.380411 
	C109.297958,20.369719 106.149582,20.359026 102.115463,20.174343 
	C99.413193,20.231522 96.710915,20.288700 93.132294,20.163830 
	C90.753189,20.225288 88.374077,20.286745 85.121994,20.177719 
	C82.746361,20.235193 80.370728,20.292669 77.101585,20.177538 
	C74.069267,20.234495 71.036942,20.291452 67.116013,20.166323 
	C64.412369,20.226095 61.708733,20.285870 58.140308,20.164825 
	C56.093792,20.226103 54.047279,20.287380 51.123661,20.168240 
	C48.750175,20.228958 46.376686,20.289677 43.114384,20.168003 
	C40.409023,20.229055 37.703663,20.290110 34.076797,20.168921 
	C28.506521,20.168921 22.936247,20.168921 16.529158,20.168921 
	C22.104784,37.968266 27.450378,55.033268 32.943474,72.854118 
	C35.888802,82.259109 38.834129,91.664101 41.909107,101.837036 
	C44.534611,110.247192 47.160110,118.657341 49.941067,127.825653 
	C51.579220,133.196915 53.028389,138.638748 54.989159,143.889542 
	C55.475899,145.192978 57.618858,145.877960 59.894512,146.958191 
	C62.596424,146.920822 65.298332,146.883438 68.902824,146.957443 
	C71.935059,146.920303 74.967300,146.883163 78.894363,146.960358 
	C81.595909,146.922684 84.297455,146.885010 87.856445,146.961166 
	C92.474533,147.935715 94.570450,145.728958 95.062759,141.350479 
	C95.228355,139.877701 95.653915,138.434158 96.474838,136.447174 
	C97.078438,134.405228 97.684593,132.364044 98.285187,130.321213 
	C100.473648,122.877563 102.660263,115.433365 105.011246,107.225464 
	C107.698128,98.898239 110.385017,90.571007 113.665344,82.589287 
	C114.579117,85.555229 115.349174,88.575478 116.443962,91.473030 
	C117.738167,94.898399 119.312820,98.217796 120.521011,102.360535 
	C122.718094,109.905510 124.915169,117.450485 127.110970,125.757065 
	C128.975952,131.676422 130.719254,137.639069 132.798126,143.482330 
	C133.271652,144.813293 134.905685,145.731400 136.887573,146.954773 
	C139.260620,146.915344 141.633682,146.875916 144.908249,146.953781 
	C147.940613,146.914932 150.972977,146.876083 154.899094,146.957031 
	C157.600967,146.916931 160.302841,146.876816 163.875763,146.957336 
	C167.476318,146.765671 172.372589,148.712524 172.524628,141.442062 
	C173.347107,138.481415 174.114929,135.504257 175.003662,132.563644 
	C176.755997,126.765457 178.575363,120.987541 180.825333,114.601830 
	C181.603012,111.628494 182.285477,108.626244 183.178009,105.687805 
	C185.074295,99.444771 187.079865,93.234940 189.526672,86.437569 
	C190.058701,84.210197 190.469162,81.945183 191.144974,79.762337 
	C193.394424,72.496780 195.739166,65.260719 198.512390,57.423347 
	C202.162704,45.495235 205.813019,33.567127 209.610748,21.157326 
	C204.248138,21.157326 200.126328,21.157326 195.112091,21.028061 
M640.100708,69.506561 
	C642.329651,84.617661 644.653503,99.715683 646.737427,114.846756 
	C647.495728,120.353027 650.375488,123.337700 655.800903,123.519890 
	C662.071533,123.730453 668.354736,123.568863 674.545898,123.568863 
	C675.162109,121.179123 675.602661,119.760971 675.890076,118.312416 
	C680.158813,96.793480 684.365417,75.262123 688.675781,53.751556 
	C691.474731,39.783344 691.263123,39.576256 676.806030,39.928280 
	C673.382080,40.011654 671.739258,40.979435 671.214233,44.533028 
	C669.635620,55.217464 667.722229,65.851913 666.021912,76.519012 
	C664.482788,86.175255 663.052124,95.848793 661.384949,106.748100 
	C660.642334,104.960342 660.274109,104.410973 660.189392,103.820892 
	C657.428589,84.599731 654.615967,65.385231 652.037842,46.139374 
	C651.622864,43.041611 650.515259,41.709400 647.437134,41.687290 
	C643.789429,41.661091 640.136963,41.184444 636.497986,41.291489 
	C626.292236,41.591705 626.309937,41.672401 625.065674,51.889824 
	C624.784607,54.197723 624.351562,56.486996 623.994568,58.785770 
	C621.589905,74.269234 619.186890,89.752975 616.783325,105.236618 
	C615.735962,104.383911 615.325256,103.506775 615.182312,102.587990 
	C612.479614,85.210983 609.861145,67.820702 607.109924,50.451443 
	C605.592285,40.869732 602.575745,38.731709 592.889160,39.950089 
	C586.797302,40.716324 586.150757,41.666664 587.323303,47.545574 
	C589.270508,57.308617 591.146729,67.085899 593.034607,76.860710 
	C595.425842,89.241928 597.732666,101.639931 600.205322,114.004807 
	C601.631165,121.135048 603.864075,123.195053 611.327393,123.662941 
	C617.078430,124.023491 622.870239,123.734810 628.879456,123.734810 
	C632.213928,102.360718 635.366821,82.150681 638.519714,61.940643 
	C638.676086,61.921345 638.832520,61.902046 638.988953,61.882744 
	C639.332275,64.134911 639.675659,66.387077 640.100708,69.506561 
M299.011047,78.542503 
	C300.782104,90.534027 302.408447,102.549408 304.379486,114.507957 
	C305.529144,121.482780 307.884705,123.387726 315.166840,123.673965 
	C319.133667,123.829903 323.159973,122.965981 327.095276,123.305756 
	C331.996033,123.728882 333.135010,121.246056 333.906891,117.117668 
	C337.848969,96.032883 342.023895,74.991508 346.146027,53.940567 
	C348.924347,39.752384 348.429565,39.240681 333.941254,39.939495 
	C330.839630,40.089096 329.581299,41.260349 329.111633,44.278439 
	C326.811127,59.061180 324.322998,73.814629 321.934204,88.583786 
	C321.026001,94.198921 320.206207,99.828362 319.346100,105.451286 
	C318.996887,105.435226 318.647705,105.419167 318.298492,105.403107 
	C315.194580,84.357750 312.090668,63.312389 308.924255,41.843269 
	C301.515869,41.843269 294.588165,41.898853 287.662140,41.816269 
	C284.839691,41.782612 284.151184,43.228672 283.776733,45.760605 
	C281.636353,60.233311 279.319397,74.679977 277.044800,89.132713 
	C276.189178,94.569443 275.286499,99.998779 274.405273,105.431480 
	C270.829468,87.313705 267.860199,69.366707 265.050720,51.394714 
	C263.313995,40.285030 257.828400,37.029041 247.124451,40.762142 
	C244.718536,41.601227 244.149933,42.427471 244.710754,45.017502 
	C246.642380,53.938557 248.195343,62.941299 249.915833,71.908447 
	C252.636902,86.090584 255.352463,100.273842 258.119568,114.447021 
	C259.398621,120.998390 261.785034,123.225250 268.546356,123.646698 
	C272.344452,123.883446 276.209900,123.154938 279.994232,123.470474 
	C286.310272,123.997101 287.317902,120.528519 288.044556,115.233116 
	C290.503967,97.311035 293.532288,79.467010 296.573608,60.127922 
	C297.504578,66.918480 298.240051,72.282860 299.011047,78.542503 
M562.119263,43.220078 
	C557.787720,42.147572 553.485779,40.323971 549.118713,40.151581 
	C538.489929,39.732002 527.830017,40.167721 517.184570,40.062771 
	C513.963928,40.031017 513.210388,41.501247 513.260986,44.315952 
	C513.362671,49.970917 513.289612,55.629013 513.289551,61.285820 
	C513.289429,80.252762 513.272156,99.219734 513.313904,118.186584 
	C513.318726,120.379913 512.646057,123.103081 516.415955,123.153717 
	C526.379028,123.287483 536.353882,123.943443 546.300110,123.629944 
	C567.475830,122.962517 576.640625,111.109795 578.618469,96.773018 
	C579.827942,88.005592 579.622498,78.907387 578.924866,70.046516 
	C578.037598,58.775810 573.076782,49.411793 562.119263,43.220078 
M439.288239,83.499969 
	C439.288239,96.461494 439.288239,109.423019 439.288239,123.132500 
	C445.861145,123.132500 452.020905,123.132500 458.777374,123.132500 
	C458.777374,112.864563 458.777374,103.125229 458.777374,93.504311 
	C467.863098,92.040939 471.407318,94.112465 474.166687,101.973961 
	C475.702454,106.349419 477.262146,110.717926 478.902771,115.054855 
	C482.908752,125.644539 494.677673,127.391365 502.233978,118.183846 
	C493.451965,109.983208 495.580139,95.588516 484.710907,88.021278 
	C485.666351,87.391556 486.315552,86.957207 486.971069,86.532623 
	C495.951508,80.716026 499.940491,71.081833 497.902954,60.125690 
	C495.978333,49.776718 489.280609,42.364437 478.299591,41.148598 
	C467.117554,39.910503 455.737915,40.552902 444.460632,40.030991 
	C440.068024,39.827702 439.157074,41.602188 439.218201,45.543251 
	C439.409210,57.859554 439.288544,70.180695 439.288239,83.499969 
M404.806732,41.538277 
	C402.904175,40.945511 401.023743,40.266232 399.095642,39.773354 
	C379.604340,34.790836 360.859253,45.716377 356.430450,64.825729 
	C353.616364,76.967941 353.303070,89.164848 357.052307,101.221886 
	C359.383850,108.719925 363.443939,114.964279 370.208099,119.334755 
	C386.068604,129.582596 415.039581,126.263710 422.666931,102.579666 
	C426.444397,90.850075 426.817505,79.188217 424.285095,67.221985 
	C421.874451,55.831188 416.292694,46.957340 404.806732,41.538277 
M758.005981,124.621170 
	C763.937134,124.113388 769.998291,124.205162 775.768250,122.953888 
	C783.931091,121.183701 790.352661,116.458870 793.477356,108.362633 
	C798.491577,95.370590 792.602661,82.030586 779.474976,76.243958 
	C773.699951,73.698372 767.818909,71.383812 762.110413,68.699928 
	C758.452026,66.979958 754.601135,64.826340 756.089600,59.759125 
	C757.546387,54.799782 761.973816,53.958176 766.163879,54.578453 
	C771.692566,55.396896 777.256897,56.681141 782.478455,58.638599 
	C786.451233,60.127949 788.739441,59.531303 790.337524,55.787560 
	C791.117493,53.960510 791.869934,52.117382 792.530579,50.244747 
	C793.566711,47.307392 792.899658,45.340576 789.730835,43.968472 
	C780.363464,39.912373 770.641479,37.975258 760.531616,39.233459 
	C752.414795,40.243610 744.851440,43.221611 740.121948,50.314392 
	C731.526062,63.205540 735.273254,77.112030 749.139832,84.286346 
	C755.322327,87.485085 761.876038,89.958229 768.168396,92.955627 
	C773.342163,95.420189 775.449402,99.293770 774.017517,103.677368 
	C772.516541,108.272377 768.553833,109.682838 764.434021,108.949997 
	C758.295105,107.857994 752.100403,106.422562 746.319946,104.142921 
	C739.415222,101.419899 738.978699,101.156540 735.725769,107.787331 
	C734.996521,109.273827 733.951355,110.843208 733.942200,112.379753 
	C733.932556,113.989151 734.594604,116.641487 735.653381,117.050362 
	C742.711609,119.775925 749.954590,122.022881 758.005981,124.621170 
M838.498291,123.142410 
	C842.328979,123.141754 846.160339,123.189384 849.990173,123.131073 
	C860.109192,122.976997 864.221863,117.847450 862.373840,107.143250 
	C850.559326,107.143250 838.644348,107.143250 826.585449,107.143250 
	C826.585449,101.118958 826.585449,95.603439 826.585449,89.708496 
	C833.167786,89.708496 839.312500,89.708588 845.457214,89.708473 
	C853.822510,89.708328 854.080872,89.452744 853.997498,81.198875 
	C853.990784,80.533432 853.899963,79.867943 853.909851,79.203392 
	C853.966248,75.410934 852.657776,73.535439 848.322815,73.756683 
	C841.074646,74.126610 833.793884,73.857719 826.423340,73.857719 
	C826.423340,67.960007 826.423340,62.711174 826.423340,56.883812 
	C835.136108,56.883812 843.580566,56.883976 852.025024,56.883755 
	C859.525391,56.883556 861.466370,54.768150 860.769653,47.144455 
	C860.575134,45.016003 860.068481,42.916077 859.675415,40.631187 
	C858.429749,40.511036 857.294312,40.306995 856.158813,40.306278 
	C841.002991,40.296688 825.847046,40.299976 810.691345,40.341640 
	C807.953552,40.349163 807.019409,41.901115 807.079102,44.564999 
	C807.205994,50.224861 807.116394,55.889568 807.116333,61.552292 
	C807.116150,77.374611 807.146729,93.197006 807.103821,109.019211 
	C807.081238,117.333618 809.628662,123.993645 821.015015,123.207436 
	C826.485046,122.829727 832.002869,123.142509 838.498291,123.142410 
M702.290588,59.501030 
	C702.290588,80.462296 702.290588,101.423553 702.290588,123.132614 
	C709.004822,123.132614 715.302673,123.132614 721.693115,123.132614 
	C721.693115,95.228912 721.693115,68.007820 721.693115,40.140800 
	C715.934631,40.140800 710.472595,39.948025 705.048523,40.315331 
	C704.051086,40.382874 702.508667,42.674812 702.418579,44.020390 
	C702.096680,48.828873 702.291626,53.671959 702.290588,59.501030 
z"/>
<path fill="#7F73E3" opacity="1.000000" stroke="none" 
	d="
M640.059814,69.072906 
	C639.675659,66.387077 639.332275,64.134911 638.988953,61.882744 
	C638.832520,61.902046 638.676086,61.921345 638.519714,61.940643 
	C635.366821,82.150681 632.213928,102.360718 628.879456,123.734810 
	C622.870239,123.734810 617.078430,124.023491 611.327393,123.662941 
	C603.864075,123.195053 601.631165,121.135048 600.205322,114.004807 
	C597.732666,101.639931 595.425842,89.241928 593.034607,76.860710 
	C591.146729,67.085899 589.270508,57.308617 587.323303,47.545574 
	C586.150757,41.666664 586.797302,40.716324 592.889160,39.950089 
	C602.575745,38.731709 605.592285,40.869732 607.109924,50.451443 
	C609.861145,67.820702 612.479614,85.210983 615.182312,102.587990 
	C615.325256,103.506775 615.735962,104.383911 616.783325,105.236618 
	C619.186890,89.752975 621.589905,74.269234 623.994568,58.785770 
	C624.351562,56.486996 624.784607,54.197723 625.065674,51.889824 
	C626.309937,41.672401 626.292236,41.591705 636.497986,41.291489 
	C640.136963,41.184444 643.789429,41.661091 647.437134,41.687290 
	C650.515259,41.709400 651.622864,43.041611 652.037842,46.139374 
	C654.615967,65.385231 657.428589,84.599731 660.189392,103.820892 
	C660.274109,104.410973 660.642334,104.960342 661.384949,106.748100 
	C663.052124,95.848793 664.482788,86.175255 666.021912,76.519012 
	C667.722229,65.851913 669.635620,55.217464 671.214233,44.533028 
	C671.739258,40.979435 673.382080,40.011654 676.806030,39.928280 
	C691.263123,39.576256 691.474731,39.783344 688.675781,53.751556 
	C684.365417,75.262123 680.158813,96.793480 675.890076,118.312416 
	C675.602661,119.760971 675.162109,121.179123 674.545898,123.568863 
	C668.354736,123.568863 662.071533,123.730453 655.800903,123.519890 
	C650.375488,123.337700 647.495728,120.353027 646.737427,114.846756 
	C644.653503,99.715683 642.329651,84.617661 640.059814,69.072906 
z"/>
<path fill="#7F73E3" opacity="1.000000" stroke="none" 
	d="
M298.993286,78.094872 
	C298.240051,72.282860 297.504578,66.918480 296.573608,60.127922 
	C293.532288,79.467010 290.503967,97.311035 288.044556,115.233116 
	C287.317902,120.528519 286.310272,123.997101 279.994232,123.470474 
	C276.209900,123.154938 272.344452,123.883446 268.546356,123.646698 
	C261.785034,123.225250 259.398621,120.998390 258.119568,114.447021 
	C255.352463,100.273842 252.636902,86.090584 249.915833,71.908447 
	C248.195343,62.941299 246.642380,53.938557 244.710754,45.017502 
	C244.149933,42.427471 244.718536,41.601227 247.124451,40.762142 
	C257.828400,37.029041 263.313995,40.285030 265.050720,51.394714 
	C267.860199,69.366707 270.829468,87.313705 274.405273,105.431480 
	C275.286499,99.998779 276.189178,94.569443 277.044800,89.132713 
	C279.319397,74.679977 281.636353,60.233311 283.776733,45.760605 
	C284.151184,43.228672 284.839691,41.782612 287.662140,41.816269 
	C294.588165,41.898853 301.515869,41.843269 308.924255,41.843269 
	C312.090668,63.312389 315.194580,84.357750 318.298492,105.403107 
	C318.647705,105.419167 318.996887,105.435226 319.346100,105.451286 
	C320.206207,99.828362 321.026001,94.198921 321.934204,88.583786 
	C324.322998,73.814629 326.811127,59.061180 329.111633,44.278439 
	C329.581299,41.260349 330.839630,40.089096 333.941254,39.939495 
	C348.429565,39.240681 348.924347,39.752384 346.146027,53.940567 
	C342.023895,74.991508 337.848969,96.032883 333.906891,117.117668 
	C333.135010,121.246056 331.996033,123.728882 327.095276,123.305756 
	C323.159973,122.965981 319.133667,123.829903 315.166840,123.673965 
	C307.884705,123.387726 305.529144,121.482780 304.379486,114.507957 
	C302.408447,102.549408 300.782104,90.534027 298.993286,78.094872 
z"/>
<path fill="#8074E3" opacity="1.000000" stroke="none" 
	d="
M562.426575,43.434326 
	C573.076782,49.411793 578.037598,58.775810 578.924866,70.046516 
	C579.622498,78.907387 579.827942,88.005592 578.618469,96.773018 
	C576.640625,111.109795 567.475830,122.962517 546.300110,123.629944 
	C536.353882,123.943443 526.379028,123.287483 516.415955,123.153717 
	C512.646057,123.103081 513.318726,120.379913 513.313904,118.186584 
	C513.272156,99.219734 513.289429,80.252762 513.289551,61.285820 
	C513.289612,55.629013 513.362671,49.970917 513.260986,44.315952 
	C513.210388,41.501247 513.963928,40.031017 517.184570,40.062771 
	C527.830017,40.167721 538.489929,39.732002 549.118713,40.151581 
	C553.485779,40.323971 557.787720,42.147572 562.426575,43.434326 
M560.116211,83.423752 
	C559.448364,77.517006 559.252869,71.506081 557.979797,65.732796 
	C556.706543,59.958611 552.562561,56.074615 546.610840,55.263680 
	C542.247070,54.669121 537.737183,55.147160 533.149536,55.147160 
	C533.149536,73.164009 533.149536,90.805840 533.149536,108.797401 
	C537.048950,108.797401 540.518860,108.935539 543.974182,108.769089 
	C551.538574,108.404678 556.424255,104.394714 558.236572,97.136612 
	C559.272644,92.987206 559.515808,88.639832 560.116211,83.423752 
z"/>
<path fill="#8075E3" opacity="1.000000" stroke="none" 
	d="
M439.288483,82.999962 
	C439.288544,70.180695 439.409210,57.859554 439.218201,45.543251 
	C439.157074,41.602188 440.068024,39.827702 444.460632,40.030991 
	C455.737915,40.552902 467.117554,39.910503 478.299591,41.148598 
	C489.280609,42.364437 495.978333,49.776718 497.902954,60.125690 
	C499.940491,71.081833 495.951508,80.716026 486.971069,86.532623 
	C486.315552,86.957207 485.666351,87.391556 484.710907,88.021278 
	C495.580139,95.588516 493.451965,109.983208 502.233978,118.183846 
	C494.677673,127.391365 482.908752,125.644539 478.902771,115.054855 
	C477.262146,110.717926 475.702454,106.349419 474.166687,101.973961 
	C471.407318,94.112465 467.863098,92.040939 458.777374,93.504311 
	C458.777374,103.125229 458.777374,112.864563 458.777374,123.132500 
	C452.020905,123.132500 445.861145,123.132500 439.288239,123.132500 
	C439.288239,109.423019 439.288239,96.461494 439.288483,82.999962 
M469.054932,54.729736 
	C465.792938,54.729736 462.530945,54.729736 459.024261,54.729736 
	C459.024261,62.761578 459.024261,70.117538 459.024261,77.857178 
	C462.111603,77.857178 464.899963,78.007462 467.666992,77.828094 
	C475.019562,77.351479 478.140442,74.276199 478.788147,67.114639 
	C479.364655,60.739513 476.481934,56.734146 469.054932,54.729736 
z"/>
<path fill="#7F73E3" opacity="1.000000" stroke="none" 
	d="
M405.160187,41.688801 
	C416.292694,46.957340 421.874451,55.831188 424.285095,67.221985 
	C426.817505,79.188217 426.444397,90.850075 422.666931,102.579666 
	C415.039581,126.263710 386.068604,129.582596 370.208099,119.334755 
	C363.443939,114.964279 359.383850,108.719925 357.052307,101.221886 
	C353.303070,89.164848 353.616364,76.967941 356.430450,64.825729 
	C360.859253,45.716377 379.604340,34.790836 399.095642,39.773354 
	C401.023743,40.266232 402.904175,40.945511 405.160187,41.688801 
M404.983551,94.039795 
	C405.218964,91.560875 405.835571,89.048248 405.619873,86.609230 
	C404.909637,78.577789 404.495605,70.443253 402.793274,62.603325 
	C401.646057,57.319721 397.347168,54.178589 391.431824,53.839664 
	C385.300293,53.488354 380.552887,55.455975 378.178589,61.318829 
	C372.689301,74.873688 373.250275,88.647797 378.051697,102.142944 
	C380.547363,109.157372 388.039917,111.645149 395.027161,108.941116 
	C401.464478,106.449898 403.202942,100.693001 404.983551,94.039795 
z"/>
<path fill="#7F74E3" opacity="1.000000" stroke="none" 
	d="
M757.571777,124.523254 
	C749.954590,122.022881 742.711609,119.775925 735.653381,117.050362 
	C734.594604,116.641487 733.932556,113.989151 733.942200,112.379753 
	C733.951355,110.843208 734.996521,109.273827 735.725769,107.787331 
	C738.978699,101.156540 739.415222,101.419899 746.319946,104.142921 
	C752.100403,106.422562 758.295105,107.857994 764.434021,108.949997 
	C768.553833,109.682838 772.516541,108.272377 774.017517,103.677368 
	C775.449402,99.293770 773.342163,95.420189 768.168396,92.955627 
	C761.876038,89.958229 755.322327,87.485085 749.139832,84.286346 
	C735.273254,77.112030 731.526062,63.205540 740.121948,50.314392 
	C744.851440,43.221611 752.414795,40.243610 760.531616,39.233459 
	C770.641479,37.975258 780.363464,39.912373 789.730835,43.968472 
	C792.899658,45.340576 793.566711,47.307392 792.530579,50.244747 
	C791.869934,52.117382 791.117493,53.960510 790.337524,55.787560 
	C788.739441,59.531303 786.451233,60.127949 782.478455,58.638599 
	C777.256897,56.681141 771.692566,55.396896 766.163879,54.578453 
	C761.973816,53.958176 757.546387,54.799782 756.089600,59.759125 
	C754.601135,64.826340 758.452026,66.979958 762.110413,68.699928 
	C767.818909,71.383812 773.699951,73.698372 779.474976,76.243958 
	C792.602661,82.030586 798.491577,95.370590 793.477356,108.362633 
	C790.352661,116.458870 783.931091,121.183701 775.768250,122.953888 
	C769.998291,124.205162 763.937134,124.113388 757.571777,124.523254 
z"/>
<path fill="#8074E3" opacity="1.000000" stroke="none" 
	d="
M837.998657,123.142502 
	C832.002869,123.142509 826.485046,122.829727 821.015015,123.207436 
	C809.628662,123.993645 807.081238,117.333618 807.103821,109.019211 
	C807.146729,93.197006 807.116150,77.374611 807.116333,61.552292 
	C807.116394,55.889568 807.205994,50.224861 807.079102,44.564999 
	C807.019409,41.901115 807.953552,40.349163 810.691345,40.341640 
	C825.847046,40.299976 841.002991,40.296688 856.158813,40.306278 
	C857.294312,40.306995 858.429749,40.511036 859.675415,40.631187 
	C860.068481,42.916077 860.575134,45.016003 860.769653,47.144455 
	C861.466370,54.768150 859.525391,56.883556 852.025024,56.883755 
	C843.580566,56.883976 835.136108,56.883812 826.423340,56.883812 
	C826.423340,62.711174 826.423340,67.960007 826.423340,73.857719 
	C833.793884,73.857719 841.074646,74.126610 848.322815,73.756683 
	C852.657776,73.535439 853.966248,75.410934 853.909851,79.203392 
	C853.899963,79.867943 853.990784,80.533432 853.997498,81.198875 
	C854.080872,89.452744 853.822510,89.708328 845.457214,89.708473 
	C839.312500,89.708588 833.167786,89.708496 826.585449,89.708496 
	C826.585449,95.603439 826.585449,101.118958 826.585449,107.143250 
	C838.644348,107.143250 850.559326,107.143250 862.373840,107.143250 
	C864.221863,117.847450 860.109192,122.976997 849.990173,123.131073 
	C846.160339,123.189384 842.328979,123.141754 837.998657,123.142502 
z"/>
<path fill="#8074E3" opacity="1.000000" stroke="none" 
	d="
M702.290833,59.001492 
	C702.291626,53.671959 702.096680,48.828873 702.418579,44.020390 
	C702.508667,42.674812 704.051086,40.382874 705.048523,40.315331 
	C710.472595,39.948025 715.934631,40.140800 721.693115,40.140800 
	C721.693115,68.007820 721.693115,95.228912 721.693115,123.132614 
	C715.302673,123.132614 709.004822,123.132614 702.290588,123.132614 
	C702.290588,101.423553 702.290588,80.462296 702.290833,59.001492 
z"/>
<path fill="#8CA9EE" opacity="1.000000" stroke="none" 
	d="
M68.004623,20.348410 
	C71.036942,20.291452 74.069267,20.234495 77.550339,20.701550 
	C77.999245,63.099041 77.999390,104.972527 77.999535,146.846008 
	C74.967300,146.883163 71.935059,146.920303 68.451477,146.446060 
	C68.001633,104.072586 68.003128,62.210499 68.004623,20.348410 
z"/>
<path fill="#C068DC" opacity="1.000000" stroke="none" 
	d="
M154.005341,146.837219 
	C150.972977,146.876083 147.940613,146.914932 144.455246,146.439362 
	C144.003738,104.337624 144.005219,62.750313 144.006699,21.163008 
	C147.039124,21.121162 150.071564,21.079317 153.552856,21.555994 
	C154.002930,63.662083 154.004135,105.249649 154.005341,146.837219 
z"/>
<path fill="#85B2F0" opacity="1.000000" stroke="none" 
	d="
M67.560318,20.257366 
	C68.003128,62.210499 68.001633,104.072586 68.000191,146.390381 
	C65.298332,146.883438 62.596424,146.920822 59.447395,146.446869 
	C59.001881,104.072258 59.003487,62.208950 59.005093,20.345644 
	C61.708733,20.285870 64.412369,20.226095 67.560318,20.257366 
z"/>
<path fill="#92A1EB" opacity="1.000000" stroke="none" 
	d="
M78.446945,146.903183 
	C77.999390,104.972527 77.999245,63.099041 77.997101,20.787853 
	C80.370728,20.292669 82.746361,20.235193 85.562881,20.661255 
	C86.335747,25.593363 86.946671,30.041359 86.955795,34.490593 
	C87.032593,71.942719 86.999229,109.395065 86.999001,146.847351 
	C84.297455,146.885010 81.595909,146.922684 78.446945,146.903183 
z"/>
<path fill="#C65FDA" opacity="1.000000" stroke="none" 
	d="
M154.452209,146.897125 
	C154.004135,105.249649 154.002930,63.662083 154.003601,21.618443 
	C156.707642,21.120573 159.409821,21.078779 162.556763,21.556145 
	C163.002594,63.662437 163.003647,105.249573 163.004715,146.836700 
	C160.302841,146.876816 157.600967,146.916931 154.452209,146.897125 
z"/>
<path fill="#CC58D8" opacity="1.000000" stroke="none" 
	d="
M163.440247,146.897018 
	C163.003647,105.249573 163.002594,63.662437 163.003143,21.619072 
	C165.377594,21.120586 167.750412,21.078333 170.562286,21.555782 
	C171.000900,60.169365 170.985718,98.263260 171.043839,136.357056 
	C171.046722,138.243774 171.687805,140.129501 172.031708,142.015701 
	C172.372589,148.712524 167.476318,146.765671 163.440247,146.897018 
z"/>
<path fill="#BA6FDE" opacity="1.000000" stroke="none" 
	d="
M143.565430,21.100513 
	C144.005219,62.750313 144.003738,104.337624 144.004486,146.380707 
	C141.633682,146.875916 139.260620,146.915344 136.444626,146.441299 
	C136.002991,104.338730 136.004318,62.749638 136.005630,21.160545 
	C138.378464,21.119703 140.751312,21.078861 143.565430,21.100513 
z"/>
<path fill="#9E94E8" opacity="1.000000" stroke="none" 
	d="
M94.008644,20.345879 
	C96.710915,20.288700 99.413193,20.231522 102.558609,20.699539 
	C103.001175,48.486046 102.968262,75.747490 103.079079,103.008347 
	C103.085838,104.671059 104.231712,106.329140 104.847572,107.989372 
	C102.660263,115.433365 100.473648,122.877563 98.285187,130.321213 
	C97.684593,132.364044 97.078438,134.405228 95.920738,136.470718 
	C94.911194,134.262756 94.063698,132.032120 94.058815,129.799637 
	C93.979088,93.315186 94.005859,56.830505 94.008644,20.345879 
z"/>
<path fill="#989BEA" opacity="1.000000" stroke="none" 
	d="
M93.570465,20.254854 
	C94.005859,56.830505 93.979088,93.315186 94.058815,129.799637 
	C94.063698,132.032120 94.911194,134.262756 95.663651,136.735764 
	C95.653915,138.434158 95.228355,139.877701 95.062759,141.350479 
	C94.570450,145.728958 92.474533,147.935715 87.427719,146.904266 
	C86.999229,109.395065 87.032593,71.942719 86.955795,34.490593 
	C86.946671,30.041359 86.335747,25.593363 85.999374,20.746498 
	C88.374077,20.286745 90.753189,20.225288 93.570465,20.254854 
z"/>
<path fill="#D252D6" opacity="1.000000" stroke="none" 
	d="
M172.278168,141.728882 
	C171.687805,140.129501 171.046722,138.243774 171.043839,136.357056 
	C170.985718,98.263260 171.000900,60.169365 171.002838,21.619064 
	C173.377502,21.119719 175.750687,21.076796 178.562714,21.554565 
	C179.001038,51.124481 178.973679,80.173782 179.058777,109.222755 
	C179.064621,111.216843 179.911346,113.208473 180.367004,115.201241 
	C178.575363,120.987541 176.755997,126.765457 175.003662,132.563644 
	C174.114929,135.504257 173.347107,138.481415 172.278168,141.728882 
z"/>
<path fill="#80B9F2" opacity="1.000000" stroke="none" 
	d="
M58.572701,20.255234 
	C59.003487,62.208950 59.001881,104.072258 59.000397,146.391388 
	C57.618858,145.877960 55.475899,145.192978 54.989159,143.889542 
	C53.028389,138.638748 51.579220,133.196915 50.280308,127.353767 
	C51.079685,125.089371 51.936890,123.297798 51.941154,121.504204 
	C52.021351,87.785835 52.000492,54.067219 52.000763,20.348656 
	C54.047279,20.287380 56.093792,20.226103 58.572701,20.255234 
z"/>
<path fill="#B576E0" opacity="1.000000" stroke="none" 
	d="
M135.570923,21.099167 
	C136.004318,62.749638 136.002991,104.338730 136.003632,146.383667 
	C134.905685,145.731400 133.271652,144.813293 132.798126,143.482330 
	C130.719254,137.639069 128.975952,131.676422 127.497253,125.275803 
	C128.255692,122.948608 128.948547,121.103325 128.952347,119.256630 
	C129.019623,86.557259 129.003006,53.857712 129.004517,21.158205 
	C131.048416,21.118067 133.092300,21.077927 135.570923,21.099167 
z"/>
<path fill="#7ABFF3" opacity="1.000000" stroke="none" 
	d="
M51.562210,20.258450 
	C52.000492,54.067219 52.021351,87.785835 51.941154,121.504204 
	C51.936890,123.297798 51.079685,125.089371 50.202579,126.974686 
	C47.160110,118.657341 44.534611,110.247192 42.261757,101.360336 
	C43.076248,99.094269 43.933926,97.306320 43.940292,95.515343 
	C44.029324,70.460602 44.002113,45.405449 44.003201,20.350395 
	C46.376686,20.289677 48.750175,20.228958 51.562210,20.258450 
z"/>
<path fill="#A48CE6" opacity="1.000000" stroke="none" 
	d="
M104.929413,107.607422 
	C104.231712,106.329140 103.085838,104.671059 103.079079,103.008347 
	C102.968262,75.747490 103.001175,48.486046 103.001480,20.786533 
	C106.149582,20.359026 109.297958,20.369719 112.724594,21.146881 
	C113.025864,42.023495 113.048882,62.133636 113.071907,82.243782 
	C110.385017,90.571007 107.698128,98.898239 104.929413,107.607422 
z"/>
<path fill="#B07CE2" opacity="1.000000" stroke="none" 
	d="
M128.569733,21.097946 
	C129.003006,53.857712 129.019623,86.557259 128.952347,119.256630 
	C128.948547,121.103325 128.255692,122.948608 127.497894,124.895004 
	C124.915169,117.450485 122.718094,109.905510 120.740723,101.510559 
	C121.306854,98.222939 121.946518,95.786224 121.954277,93.347504 
	C122.030861,69.283836 122.002594,45.219845 122.004051,21.155941 
	C124.047684,21.116524 126.091316,21.077106 128.569733,21.097946 
z"/>
<path fill="#D84BD4" opacity="1.000000" stroke="none" 
	d="
M180.596161,114.901535 
	C179.911346,113.208473 179.064621,111.216843 179.058777,109.222755 
	C178.973679,80.173782 179.001038,51.124481 179.003235,21.618628 
	C181.378098,21.118696 183.751282,21.075397 186.563080,21.553621 
	C187.001129,42.118034 186.953964,62.161236 187.088303,82.203217 
	C187.099075,83.810272 188.360428,85.408943 189.040619,87.011505 
	C187.079865,93.234940 185.074295,99.444771 183.178009,105.687805 
	C182.285477,108.626244 181.603012,111.628494 180.596161,114.901535 
z"/>
<path fill="#76C6F6" opacity="1.000000" stroke="none" 
	d="
M43.558792,20.259197 
	C44.002113,45.405449 44.029324,70.460602 43.940292,95.515343 
	C43.933926,97.306320 43.076248,99.094269 42.196930,100.976364 
	C38.834129,91.664101 35.888802,82.259109 33.238670,72.281937 
	C34.022507,69.879501 34.921562,68.052284 34.935158,66.218498 
	C35.048523,50.930073 34.998802,35.640434 34.998302,20.351164 
	C37.703663,20.290110 40.409023,20.229055 43.558792,20.259197 
z"/>
<path fill="#AB83E3" opacity="1.000000" stroke="none" 
	d="
M121.557266,21.096279 
	C122.002594,45.219845 122.030861,69.283836 121.954277,93.347504 
	C121.946518,95.786224 121.306854,98.222939 120.863174,101.121857 
	C119.312820,98.217796 117.738167,94.898399 116.443962,91.473030 
	C115.349174,88.575478 114.579117,85.555229 113.368622,82.416534 
	C113.048882,62.133636 113.025864,42.023495 113.006012,21.442324 
	C115.709618,20.993073 118.410057,21.014847 121.557266,21.096279 
z"/>
<path fill="#6FD0F8" opacity="1.000000" stroke="none" 
	d="
M34.537552,20.260042 
	C34.998802,35.640434 35.048523,50.930073 34.935158,66.218498 
	C34.921562,68.052284 34.022507,69.879501 33.164917,71.904022 
	C27.450378,55.033268 22.104784,37.968266 16.529158,20.168921 
	C22.936247,20.168921 28.506521,20.168921 34.537552,20.260042 
z"/>
<path fill="#DE44D2" opacity="1.000000" stroke="none" 
	d="
M189.283661,86.724533 
	C188.360428,85.408943 187.099075,83.810272 187.088303,82.203217 
	C186.953964,62.161236 187.001129,42.118034 187.003540,21.618319 
	C189.707611,21.117014 192.409851,21.072538 195.556610,21.549969 
	C196.000656,32.625301 195.922684,43.179955 196.090591,53.730698 
	C196.113480,55.168266 197.364822,56.586281 198.047379,58.013351 
	C195.739166,65.260719 193.394424,72.496780 191.144974,79.762337 
	C190.469162,81.945183 190.058701,84.210197 189.283661,86.724533 
z"/>
<path fill="#E43FD1" opacity="1.000000" stroke="none" 
	d="
M198.279877,57.718349 
	C197.364822,56.586281 196.113480,55.168266 196.090591,53.730698 
	C195.922684,43.179955 196.000656,32.625301 196.002838,21.614601 
	C200.126328,21.157326 204.248138,21.157326 209.610748,21.157326 
	C205.813019,33.567127 202.162704,45.495235 198.279877,57.718349 
z"/>
<path fill="#FEFEFF" opacity="1.000000" stroke="none" 
	d="
M560.116089,83.902672 
	C559.515808,88.639832 559.272644,92.987206 558.236572,97.136612 
	C556.424255,104.394714 551.538574,108.404678 543.974182,108.769089 
	C540.518860,108.935539 537.048950,108.797401 533.149536,108.797401 
	C533.149536,90.805840 533.149536,73.164009 533.149536,55.147160 
	C537.737183,55.147160 542.247070,54.669121 546.610840,55.263680 
	C552.562561,56.074615 556.706543,59.958611 557.979797,65.732796 
	C559.252869,71.506081 559.448364,77.517006 560.116089,83.902672 
z"/>
<path fill="#FEFEFF" opacity="1.000000" stroke="none" 
	d="
M469.495605,54.772743 
	C476.481934,56.734146 479.364655,60.739513 478.788147,67.114639 
	C478.140442,74.276199 475.019562,77.351479 467.666992,77.828094 
	C464.899963,78.007462 462.111603,77.857178 459.024261,77.857178 
	C459.024261,70.117538 459.024261,62.761578 459.024261,54.729736 
	C462.530945,54.729736 465.792938,54.729736 469.495605,54.772743 
z"/>
<path fill="#FEFEFF" opacity="1.000000" stroke="none" 
	d="
M404.940308,94.464249 
	C403.202942,100.693001 401.464478,106.449898 395.027161,108.941116 
	C388.039917,111.645149 380.547363,109.157372 378.051697,102.142944 
	C373.250275,88.647797 372.689301,74.873688 378.178589,61.318829 
	C380.552887,55.455975 385.300293,53.488354 391.431824,53.839664 
	C397.347168,54.178589 401.646057,57.319721 402.793274,62.603325 
	C404.495605,70.443253 404.909637,78.577789 405.619873,86.609230 
	C405.835571,89.048248 405.218964,91.560875 404.940308,94.464249 
z"/>
</svg>